<?xml version="1.0" encoding="UTF-8" standalone="no"?>
<svg viewBox="0 0 170 169.99999">
  <g transform="translate(0,-127)">
    <g transform="matrix(1.0057369,0,0,1.0056077,-20.602372,62.667257)">
      <ellipse
         style="fill:#ffffff;fill-opacity:1;stroke-width:0.26654935"
         ry="84.526001"
         rx="84.514999"
         cy="148.5"
         cx="105"
         id="path55" />
      <g
         transform="translate(-184.93049,-24.946833)"
         id="g39">
        <path
           id="path43"
           d="m 285.17597,257.84215 c -15.7137,-0.83735 -31.29261,-6.32205 -44.17141,-15.55095 -7.67805,-5.50207 -14.7628,-12.60642 -20.10235,-20.15798 -17.33277,-24.51318 -20.35915,-56.78869 -7.85213,-83.74062 4.42288,-9.53105 9.75741,-17.15782 17.22235,-24.62276 7.46493,-7.46493 15.09171,-12.79947 24.62276,-17.222351 18.4869,-8.57883 40.23416,-9.98787 59.92812,-3.88283 13.28101,4.11705 24.8546,11.131411 34.81247,21.098671 7.20493,7.21174 12.11324,14.12925 16.53695,23.30635 4.99692,10.36623 7.57579,20.46101 8.1535,31.91618 0.7458,14.7883 -1.99472,28.23579 -8.43163,41.37341 -4.42599,9.03336 -9.16482,15.66634 -16.26561,22.76713 -7.10079,7.10079 -13.73377,11.83962 -22.76713,16.26561 -13.1817,6.45851 -26.89495,9.23832 -41.68589,8.45014 z m 36.94852,-53.73293 c 0.46648,-0.51967 0.68146,-0.54929 2.88528,-0.39747 2.09871,0.14457 2.48511,0.10067 3.25653,-0.37 0.93672,-0.57153 1.88729,-2.30553 1.89704,-3.46055 0.008,-0.96284 -1.02306,-2.39995 -2.11613,-2.94913 -0.78069,-0.39223 -1.69187,-0.46267 -5.98924,-0.46302 l -5.06846,-4.1e-4 0.27557,-0.89788 c 0.34864,-1.13599 0.0944,-2.17557 -0.62627,-2.56129 -0.68426,-0.3662 -1.64637,0.003 -2.06982,0.79416 -0.23299,0.43535 -0.17882,0.64437 0.28799,1.11118 0.43283,0.43283 0.50896,0.6796 0.30797,0.99825 -0.2416,0.38305 -3.3436,0.43587 -32.62759,0.55558 -26.32029,0.1076 -32.38212,0.19686 -32.47589,0.4782 -0.16695,0.50091 1.7736,2.24633 2.99533,2.69414 0.88377,0.32393 5.70057,0.39568 31.27802,0.4659 29.61869,0.0813 30.22791,0.0932 29.96407,0.58624 -0.45583,0.85172 -0.33284,2.60207 0.20298,2.88884 0.25977,0.13902 1.43447,0.18682 2.61045,0.10622 1.93837,-0.13286 2.19089,-0.0938 2.70269,0.41799 0.71977,0.71977 1.66501,0.72102 2.30948,0.003 z m -1.54649,-0.40747 c 0.1819,-0.0734 0.47956,-0.0734 0.66146,0 0.1819,0.0734 0.0331,0.13345 -0.33073,0.13345 -0.3638,0 -0.51263,-0.0601 -0.33073,-0.13345 z m -3.63802,-1.19679 c 0,-0.17252 -0.23997,-0.56911 -0.53327,-0.88132 l -0.53328,-0.56764 0.56106,-0.50774 c 0.50283,-0.45506 0.99056,-0.50774 4.70046,-0.50774 4.36363,0 5.13885,0.17143 5.46825,1.2093 0.11123,0.35045 0.007,0.73258 -0.28767,1.05861 -0.66456,0.73433 -3.59061,0.73836 -4.11776,0.006 -0.62498,-0.86868 -1.46209,-0.93396 -2.2227,-0.17335 -0.52456,0.52456 -0.94448,0.67789 -1.85649,0.67789 -0.73232,0 -1.1786,-0.11877 -1.1786,-0.31368 z m 3.30729,0.0491 c 0.0899,-0.14552 0.45415,-0.26459 0.80937,-0.26459 0.35521,0 0.64584,0.11907 0.64584,0.26459 0,0.14552 -0.36421,0.26458 -0.80937,0.26458 -0.4722,0 -0.74124,-0.11022 -0.64584,-0.26458 z m -11.30183,-22.75417 c 0.47897,-0.80036 1.12055,-2.28864 1.42574,-3.30729 0.74429,-2.48424 2.29282,-5.6471 2.9324,-5.98939 0.91629,-0.49039 0.9221,-0.46868 1.54972,5.79095 0.17874,1.78263 0.41831,3.24115 0.53238,3.24115 0.54248,0 0.7816,-4.13479 0.42843,-7.40834 l -0.18554,-1.71979 0.44308,0.92604 c 0.24369,0.50933 0.74121,1.56041 1.10561,2.33574 0.69513,1.47904 1.33647,1.96942 2.95934,2.26275 1.31513,0.23771 2.55395,-0.62764 3.46174,-2.41813 1.07778,-2.12576 1.19334,-4.44147 0.50345,-10.08857 -0.31649,-2.59061 -0.64078,-4.99644 -0.72065,-5.3463 -0.11381,-0.49848 0.14824,-0.32127 1.21119,0.8191 0.74602,0.80036 1.52501,1.69333 1.73107,1.98437 0.41837,0.59089 1.00341,4.00983 1.47142,8.59896 0.17067,1.67349 0.35466,3.08899 0.40887,3.14555 0.0542,0.0566 0.24255,-0.24109 0.41853,-0.66146 0.37803,-0.90302 0.45191,-4.91596 0.12853,-6.98201 l -0.22777,-1.4552 1.6192,1.71979 c 1.84966,1.96458 2.58496,3.19394 2.83113,4.73341 0.29468,1.84286 0.72228,0.93978 0.53075,-1.12095 -0.20916,-2.25053 -0.69288,-3.14209 -3.41851,-6.30078 -2.18529,-2.5325 -2.06266,-2.17449 -2.84028,-8.29189 -0.16649,-1.30969 -0.41016,-3.0282 -0.54149,-3.81891 -0.30427,-1.83182 -0.30217,-2.46919 0.008,-2.27781 0.13547,0.0837 0.31668,0.0383 0.40271,-0.10084 0.17756,-0.2873 -1.73574,-5.03144 -2.03303,-5.04101 -0.26646,-0.009 -0.53708,1.16619 -0.53726,2.33216 -8e-5,0.5329 0.26304,2.69532 0.58472,4.80537 0.79746,5.23105 1.0865,7.482 0.97506,7.59345 -0.0516,0.0516 -0.40633,-0.31579 -0.78822,-0.81647 -0.3819,-0.50069 -0.84499,-1.07485 -1.02909,-1.27592 -1.44491,-1.57802 -1.49254,-1.68608 -1.78349,-4.04585 -0.16147,-1.30969 -0.35554,-2.66994 -0.43124,-3.02277 -0.11959,-0.55736 -0.0834,-0.5965 0.27586,-0.29833 0.34985,0.29034 0.41412,0.26691 0.41743,-0.15224 0.005,-0.6408 -1.86374,-5.12562 -2.13583,-5.12562 -0.24599,0 -0.50784,1.1361 -0.51835,2.24896 -0.004,0.43656 0.17491,1.97332 0.39785,3.41502 0.22294,1.4417 0.35629,2.67032 0.29635,2.73027 -0.1136,0.1136 -3.33561,-4.01831 -3.33561,-4.27759 0,-0.0814 0.23812,-0.14791 0.52916,-0.14791 0.29105,0 0.52917,-0.0863 0.52917,-0.1918 0,-0.24107 -3.4949,-3.77695 -3.73318,-3.77695 -0.0965,0 -0.25374,0.5218 -0.34937,1.15957 -0.16882,1.12577 -0.11079,1.25065 1.99117,4.28473 1.19079,1.71883 2.77964,3.84961 3.53078,4.73505 l 1.36571,1.60989 0.46909,3.43194 c 0.258,1.88757 0.69427,5.03929 0.96948,7.00382 0.6879,4.91037 0.71037,6.07627 0.13408,6.9558 -0.55917,0.8534 -1.35371,1.10199 -2.87239,0.8987 -1.26781,-0.16971 -1.57364,-0.52507 -2.52443,-2.93327 -0.66292,-1.67904 -1.48422,-2.80457 -2.04651,-2.80457 -0.37527,0 -0.29403,0.46936 -1.69452,-9.78958 -0.58604,-4.29286 -1.13361,-8.21473 -1.21683,-8.71526 -0.13423,-0.80741 -0.10412,-0.8709 0.26698,-0.56291 0.35974,0.29855 0.41827,0.26571 0.41827,-0.23469 0,-0.71867 -1.83144,-5.03922 -2.13607,-5.03922 -0.21809,0 -0.51982,1.21717 -0.5575,2.24896 -0.0106,0.29104 0.22378,1.89838 0.52092,3.57187 0.29714,1.67349 0.67854,4.11427 0.84754,5.42396 0.169,1.30969 0.65334,4.81907 1.07631,7.79863 l 0.76903,5.41738 -0.88048,0.93262 c -1.23499,1.30812 -1.79635,2.33672 -3.21569,5.89216 -1.27164,3.18547 -2.01394,4.43317 -2.63745,4.43317 -0.42323,0 -1.61772,-1.36466 -1.85849,-2.12325 -0.12226,-0.38523 0.0721,-0.81545 0.68257,-1.51071 2.50792,-2.85637 2.86141,-6.12356 1.59635,-14.75458 -0.44792,-3.05594 -0.99498,-6.80641 -1.2157,-8.33438 -0.22071,-1.52797 -0.46133,-3.12479 -0.53471,-3.54849 -0.131,-0.75642 -0.1238,-0.76166 0.39769,-0.28972 0.475,0.42987 0.5311,0.43461 0.5311,0.0449 0,-0.71932 -1.96398,-5.19512 -2.24216,-5.10975 -0.46779,0.14357 -0.67489,1.8674 -0.40207,3.34684 0.14759,0.80037 0.57339,3.59833 0.94623,6.21771 0.37283,2.61937 1.02501,7.14375 1.44928,10.05417 0.42427,2.91041 0.77286,5.74197 0.77464,6.29235 0.004,1.32364 -0.51345,2.47173 -1.69645,3.76181 l -0.97048,1.05834 0.0946,-1.64462 c 0.0767,-1.33381 0.029,-1.5902 -0.25241,-1.35667 -0.22007,0.18264 -0.34696,0.90705 -0.34696,1.98069 v 1.69274 l -1.92054,1.25143 c -1.0563,0.68828 -2.42552,1.47787 -3.04271,1.75463 -2.0809,0.93312 -1.11472,1.26568 1.613,0.5552 0.83788,-0.21824 1.97927,-0.61704 2.53642,-0.88623 l 1.013,-0.48942 0.3479,1.45022 c 0.44772,1.86632 1.72101,3.31055 2.80864,3.1857 0.58068,-0.0667 0.93415,-0.40397 1.61433,-1.54055 z m -47.9383,0.85585 c 0.3468,-0.23156 0.89951,-1.23449 0.89951,-1.63221 0,-0.15508 -0.23813,-0.28197 -0.52917,-0.28197 -0.30152,0 -0.52917,-0.17639 -0.52917,-0.41002 0,-0.49745 0.70594,-1.93061 1.26501,-2.56817 0.2241,-0.25555 0.33369,-0.53839 0.24355,-0.62853 -0.15192,-0.15192 -1.14939,0.8877 -2.00555,2.09028 -1.17358,1.64845 -0.66438,4.31214 0.65582,3.43062 z m 22.72084,-0.84271 c 0.54963,-1.06288 0.51379,-1.40667 -0.1255,-1.20376 -0.81044,0.25722 -0.68147,-0.75592 0.27701,-2.17612 0.44339,-0.65699 0.74178,-1.25891 0.66308,-1.33762 -0.41316,-0.41315 -2.29166,2.23716 -2.63499,3.7176 -0.38043,1.64047 1.07558,2.44023 1.8204,0.9999 z m 9.95249,-0.69021 c 0.66794,-0.33652 1.58505,-1.03396 2.03801,-1.54986 0.45297,-0.5159 0.89576,-0.8212 0.98399,-0.67845 0.27488,0.44477 1.18533,0.29267 1.21798,-0.20347 0.13828,-2.10153 -0.83826,-2.52835 -1.69141,-0.73928 -0.45275,0.94942 -1.83474,2.01469 -4.09375,3.15554 -0.76398,0.38583 -1.38906,0.76849 -1.38906,0.85036 0,0.27073 1.69979,-0.21289 2.93424,-0.83484 z m 19.09685,0.47863 c 0.22949,-0.25466 0.50116,-0.79912 0.6037,-1.20992 0.15856,-0.63525 0.1122,-0.73413 -0.31012,-0.66146 -0.41976,0.0722 -0.4877,-0.0666 -0.43934,-0.89783 0.0315,-0.5408 0.36748,-1.47479 0.7467,-2.07552 1.35084,-2.13986 -0.007,-1.44122 -1.45876,0.75059 -1.30183,1.96539 -1.32361,4.55716 -0.0383,4.55716 0.26337,0 0.66662,-0.20836 0.89612,-0.46302 z m -56.77205,-1.23893 c 2.48111,-1.17827 5.1319,-3.75354 6.26097,-6.0826 0.74024,-1.52697 0.75432,-1.6387 0.6563,-5.20788 l -0.10017,-3.64743 0.96723,-0.54361 c 0.53197,-0.29898 1.03107,-0.54361 1.10911,-0.54361 0.078,0 0.27697,0.40928 0.44207,0.90951 0.46257,1.40161 1.26102,2.26549 2.09388,2.26549 0.70292,0 0.7378,0.0682 1.04826,2.05052 0.17663,1.12779 0.39478,3.1557 0.48478,4.50648 0.18494,2.77566 0.59663,3.12313 0.99001,0.83554 0.16012,-0.93111 0.14217,-2.57903 -0.0515,-4.72546 -0.29516,-3.27176 -0.29263,-3.3036 0.34696,-4.37048 0.36228,-0.60433 0.64537,-0.87863 0.64678,-0.6267 0.003,0.59579 1.00581,1.27177 1.88605,1.27177 0.9412,0 2.15369,-1.39734 2.60205,-2.99873 0.28034,-1.00125 0.28266,-1.45965 0.0123,-2.42523 -0.18334,-0.65484 -0.42401,-1.19063 -0.53482,-1.19063 -0.11081,0 -0.39128,0.4744 -0.62328,1.05421 -0.34225,0.85538 -0.36212,1.18521 -0.10535,1.74878 0.27229,0.5976 0.24623,0.74593 -0.18665,1.06246 -0.2767,0.20234 -0.65895,0.36789 -0.84941,0.36789 -0.51877,0 -1.40464,-0.98755 -1.40464,-1.56586 0,-0.66125 -0.267,-1.34456 -0.52538,-1.34456 -0.11229,0 -0.34877,0.34909 -0.5255,0.77575 -0.17673,0.42666 -0.58525,1.13348 -0.90783,1.57072 l -0.58651,0.79496 -0.45046,-2.95978 c -0.40675,-2.67267 -1.35518,-9.4606 -1.59299,-11.40114 -0.0804,-0.65608 -0.0474,-0.70444 0.2259,-0.33073 0.38464,0.52603 0.6586,0.56427 0.6586,0.0919 0,-0.59365 -1.77984,-4.78949 -2.07313,-4.88726 -0.44387,-0.14795 -0.91745,2.00645 -0.61939,2.81771 0.14055,0.38256 0.39891,1.88618 0.57413,3.34139 0.17522,1.45521 0.60808,4.6699 0.96193,7.14375 0.35385,2.47386 0.71546,5.00394 0.80358,5.6224 0.13128,0.92133 0.0837,1.12448 -0.2633,1.12448 -0.54146,0 -0.97132,-0.80238 -0.97132,-1.81305 0,-0.96026 -0.23443,-1.62654 -0.57231,-1.62654 -0.13812,0 -0.95815,0.3508 -1.8223,0.77955 l -1.57119,0.77955 -0.13694,-0.58111 c -0.0753,-0.31961 -0.23487,-1.32525 -0.35456,-2.23476 -0.19275,-1.4647 -0.16628,-1.65364 0.23168,-1.65364 0.65155,0 1.84179,-1.27548 2.44054,-2.61528 0.63365,-1.41794 0.53172,-2.23479 -0.68835,-5.51646 -0.60028,-1.61459 -0.77611,-2.36206 -0.53378,-2.26907 0.21392,0.0821 0.36138,-0.0365 0.36138,-0.29052 0,-0.532 -1.55802,-3.33159 -1.85409,-3.33159 -0.11883,0 -0.29475,0.46572 -0.39091,1.03493 -0.19959,1.18132 0.55485,4.3285 1.74018,7.25933 0.40305,0.99658 0.66709,1.98325 0.58676,2.19259 -0.16093,0.41937 -1.43628,1.15482 -2.00257,1.15482 -0.2533,0 -0.45619,-0.72259 -0.68721,-2.4474 -0.18029,-1.34607 -0.39109,-2.7747 -0.46845,-3.17474 -0.11309,-0.58486 -0.0588,-0.69593 0.2772,-0.567 0.25387,0.0974 0.41868,0.0194 0.41999,-0.1987 0.003,-0.49351 -1.89452,-4.72466 -2.11879,-4.72466 -0.0995,0 -0.32344,0.47591 -0.49771,1.05759 -0.24135,0.80554 -0.24451,1.32575 -0.0133,2.18281 0.45033,1.66907 1.23392,7.595 0.98386,7.44046 -0.69561,-0.42991 -1.3167,-2.49327 -1.68432,-5.59556 -0.42294,-3.56909 -0.761,-4.82072 -1.30206,-4.82072 -0.73698,0 -0.86372,1.91787 -0.34129,5.16447 0.27788,1.72686 0.43154,3.43334 0.34147,3.79219 -0.0901,0.35885 -0.56154,1.05024 -1.04774,1.53644 -1.16055,1.16055 -2.63036,1.23503 -3.67895,0.18645 -0.62655,-0.62656 -0.69608,-0.88907 -0.68327,-2.57969 0.008,-1.03518 0.11501,-2.83465 0.23814,-3.99882 0.12312,-1.16416 0.18521,-2.1573 0.13796,-2.20697 -0.0472,-0.0497 -0.31541,-0.0175 -0.59591,0.0716 -0.77928,0.24733 -1.84287,2.45869 -2.57285,5.34934 -0.89736,3.55344 -1.12925,4.0621 -1.85181,4.0621 -0.40478,0 -0.69084,-0.23449 -0.88763,-0.7276 -0.46081,-1.15469 -0.81833,-3.00727 -0.82975,-4.29948 -0.008,-0.86783 -0.0801,-1.08303 -0.267,-0.79375 -0.3952,0.61154 -0.31141,3.94118 0.14343,5.6991 0.52628,2.03408 1.39878,2.9787 2.41966,2.61967 0.87964,-0.30935 1.15772,-1.04578 1.89784,-5.02592 0.29914,-1.60867 0.7355,-3.27555 0.9697,-3.70417 l 0.4258,-0.7793 -0.14902,0.79375 c -0.88067,4.69078 -0.66337,6.47997 0.97281,8.00996 1.91137,1.78733 4.63506,0.96351 5.65641,-1.71086 l 0.44369,-1.16178 0.38675,0.79854 c 0.5658,1.16825 1.54605,2.13393 2.16613,2.13393 0.29799,0 0.51974,0.0893 0.49276,0.19844 -0.0698,0.2825 0.32563,4.07552 0.48273,4.6302 0.0721,0.25467 0.004,0.46302 -0.15127,0.46302 -0.15533,0 -0.28286,-0.20835 -0.28341,-0.46302 -5.2e-4,-0.25466 -0.24982,-0.87974 -0.55394,-1.38906 -2.01663,-3.37727 -4.73007,-1.97484 -4.73526,2.4474 -0.002,1.82652 0.57787,2.3151 2.74834,2.3151 1.82658,0 2.01269,0.1456 2.01269,1.57458 0,0.92723 -1.62255,3.00851 -3.26436,4.18724 -3.76181,2.7008 -6.74479,2.49118 -8.13571,-0.57173 -0.58468,-1.2875 -0.61677,-2.39971 -0.12821,-4.44331 0.28186,-1.17896 0.28795,-1.47487 0.0283,-1.37524 -0.50964,0.19557 -0.95796,2.03293 -1.12495,4.6105 -0.13965,2.15547 -0.0971,2.44863 0.5426,3.74238 1.0034,2.02916 2.11997,2.67899 4.38177,2.55015 1.46982,-0.0837 2.02062,-0.2653 3.46721,-1.143 1.96861,-1.19442 3.96387,-3.08213 4.64547,-4.39505 0.27787,-0.53524 0.53393,-1.81164 0.63174,-3.14902 0.18162,-2.48349 0.3178,-2.24118 0.8023,1.42759 l 0.27588,2.08906 -1.07076,1.41822 c -1.92093,2.54424 -4.38372,4.19696 -7.48583,5.02356 -1.51328,0.40323 -1.94572,0.42352 -3.02347,0.14189 -3.40575,-0.88998 -4.42173,-3.23371 -3.65092,-8.42215 0.22862,-1.53888 0.48071,-2.90319 0.5602,-3.03181 0.0795,-0.12862 0.0255,-0.23386 -0.12005,-0.23386 -0.37464,0 -0.53874,0.33235 -0.94558,1.91505 -0.87956,3.42164 -1.02672,5.33206 -0.56916,7.38869 0.50181,2.25555 1.08777,3.33341 2.32088,4.26923 2.02616,1.53767 4.67416,1.5617 7.81334,0.0709 z m 0.35312,-16.83383 c 0.4173,-0.77972 0.99113,-0.9144 1.58936,-0.373 0.78734,0.71253 0.63551,0.91712 -0.68062,0.91712 -1.12893,0 -1.1827,-0.0322 -0.90874,-0.54412 z m 22.15966,17.10651 c 2.09223,-1.06547 5.32374,-4.66758 5.3602,-5.97493 0.006,-0.22055 0.30652,0.3105 0.66749,1.18012 0.36097,0.86962 1.03906,1.97603 1.50686,2.45869 0.96844,0.99917 3.03175,2.06669 4.49519,2.32574 l 0.99219,0.17563 v -1.21076 c 0,-0.98849 -0.10929,-1.26698 -0.59531,-1.51698 -0.71683,-0.36873 -2.05052,-1.5829 -2.05052,-1.86675 0,-0.66783 5.85271,-3.4019 7.2823,-3.4019 0.38871,0 0.81852,-0.35305 1.2815,-1.05266 0.38314,-0.57897 0.69661,-1.1052 0.69661,-1.16941 0,-0.0642 -2.51447,-0.0481 -5.58772,0.0357 l -5.58772,0.15249 0.30854,-0.57651 c 0.30664,-0.57297 3.14539,-2.94542 3.52472,-2.94574 0.10914,-9e-5 0.19843,0.25641 0.19843,0.57001 0,0.55342 0.0156,0.5561 0.52917,0.0913 0.29104,-0.26339 0.52917,-0.64573 0.52917,-0.84964 0,-0.20391 0.51502,-0.59856 1.1445,-0.87701 1.9684,-0.87072 2.30936,-2.45498 0.75951,-3.52904 -1.16274,-0.80578 -2.53965,-0.91104 -3.46243,-0.2647 -0.54716,0.38325 -0.6044,0.59466 -0.50045,1.84818 l 0.11738,1.41543 -1.54142,1.21101 c -1.59649,1.25427 -3.04124,3.08994 -3.393,4.31109 -0.24786,0.86044 -0.29588,0.7358 -1.05421,-2.73616 -0.81529,-3.73275 -2.17789,-7.01146 -2.91391,-7.01146 -0.52638,0 -0.28395,2.78111 0.3862,4.43035 0.36007,0.88613 0.96258,2.8644 1.33891,4.39614 0.64745,2.63524 0.66056,2.82112 0.24384,3.45712 -0.59904,0.91425 -3.98778,3.77734 -5.23346,4.42166 -1.36137,0.70416 -2.62131,0.57602 -2.82303,-0.28712 -0.12927,-0.55314 0.15075,-0.91365 1.92197,-2.47442 3.59917,-3.17154 4.22128,-4.84116 2.96963,-7.9698 -0.7248,-1.81171 -0.72632,-2.34456 -0.005,-1.7459 0.33444,0.27755 0.40327,0.25784 0.40327,-0.11548 0,-0.44743 -2.55162,-3.58338 -2.91568,-3.58338 -0.10477,0 -0.25299,0.55448 -0.32938,1.23217 -0.11379,1.00953 0.0263,1.61909 0.7751,3.37344 0.50269,1.1777 1.13814,2.52337 1.41211,2.99038 l 0.49812,0.84912 -1.34886,1.21275 c -0.74188,0.66701 -1.70119,1.46362 -2.13181,1.77025 l -0.78294,0.5575 0.17348,-0.54658 c 0.0954,-0.30062 0.0673,-0.61223 -0.0626,-0.69247 -0.12984,-0.0802 -0.36889,0.29669 -0.53124,0.83763 -0.24241,0.80772 -0.66324,1.22817 -2.35439,2.35229 -2.40051,1.59563 -4.03959,2.42995 -6.42484,3.27031 -0.94588,0.33326 -1.8329,0.70571 -1.97114,0.82769 -0.13825,0.12197 -0.45864,0.22177 -0.71199,0.22177 -0.46933,0 -0.916,0.45781 -0.67844,0.69537 0.24916,0.24916 6.64616,-0.46947 7.55338,-0.84853 0.50082,-0.20926 1.47503,-0.78598 2.16491,-1.28161 l 1.25432,-0.90114 0.147,0.90589 c 0.0808,0.49823 0.40054,1.26194 0.71042,1.69712 0.71448,1.00339 1.88248,1.05328 3.64503,0.15571 z m 7.90727,-4.59162 c -0.67836,-0.97887 -1.38873,-2.65239 -1.19978,-2.82652 0.0532,-0.049 1.29868,-0.13572 2.76774,-0.19264 l 2.671,-0.10348 -1.00787,0.73009 c -1.06926,0.77457 -1.8206,1.94828 -1.8206,2.84406 0,0.84819 -0.65513,0.63848 -1.41049,-0.45151 z m 4.74003,-11.34676 c -0.22973,-0.59866 -0.20977,-0.62401 0.49131,-0.62401 0.89494,0 1.05173,0.39407 0.29414,0.73925 -0.50543,0.23029 -0.66165,0.20737 -0.78545,-0.11524 z m 36.54615,15.50731 c 3.97383,-0.91841 6.41938,-3.15955 7.34173,-6.72806 0.46345,-1.79307 0.53287,-5.5445 0.14668,-7.92638 -0.37934,-2.33956 -2.12107,-14.94552 -2.1163,-15.31686 0.002,-0.19262 0.0998,-0.16385 0.2502,0.074 0.13538,0.21407 0.32675,0.30862 0.42526,0.2101 0.18606,-0.18606 -1.59867,-4.90974 -2.01916,-5.34417 -0.81555,-0.84257 -0.66373,2.18358 0.50353,10.03653 2.12089,14.26876 2.27168,15.35929 2.23658,16.17523 -0.10613,2.46727 -3.39155,5.8293 -7.94889,8.13426 -0.76399,0.3864 -1.38907,0.8196 -1.38907,0.96267 0,0.33363 -0.13871,0.3486 2.56944,-0.2773 z m -2.02758,-1.46224 c 0.18813,-0.22668 0.72112,-0.57053 1.18441,-0.76411 0.46329,-0.19358 0.90313,-0.58439 0.97742,-0.86848 0.12331,-0.47151 0.0229,-0.50574 -1.15201,-0.39284 -0.89274,0.0858 -1.28709,0.0265 -1.28709,-0.19351 0,-0.19025 0.29117,-0.28313 0.7276,-0.2321 0.5851,0.0684 0.74419,-0.0317 0.81231,-0.51141 0.19962,-1.40577 -1.76416,-0.79118 -2.28977,0.71661 -0.24103,0.69141 -0.20396,0.88268 0.25371,1.30907 0.34391,0.32039 0.43403,0.56235 0.25148,0.67517 -0.34214,0.21146 -0.37804,0.67377 -0.0523,0.67377 0.1277,0 0.38611,-0.18548 0.57425,-0.41217 z m -59.80562,-1.77064 c 0.69368,-1.13773 0.69251,-1.77988 -0.003,-1.59802 -0.79959,0.2091 -0.68502,-1.07848 0.24626,-2.76761 0.42121,-0.76398 0.67341,-1.38906 0.56045,-1.38906 -0.32517,0 -1.54944,1.3102 -2.18463,2.33795 -0.71019,1.14911 -0.83903,3.61881 -0.20958,4.01728 0.67839,0.42946 1.04733,0.29015 1.5904,-0.60054 z m 34.65932,-1.66237 c 0.32323,-1.55699 0.064,-5.21042 -0.67458,-9.50594 -0.19918,-1.15847 -0.32267,-2.1458 -0.27441,-2.19406 0.0483,-0.0483 1.21097,1.2252 2.58379,2.82992 1.97749,2.31152 2.62233,3.2754 3.10392,4.63955 0.74588,2.11281 1.21428,2.02168 0.98298,-0.19125 -0.22325,-2.13595 -1.02845,-3.51506 -4.42316,-7.57574 l -2.84966,-3.40871 -0.29335,-2.2144 c -0.16134,-1.21792 -0.41212,-3.1669 -0.55728,-4.33107 -0.14517,-1.16416 -0.33195,-2.47385 -0.41508,-2.91041 -0.12335,-0.64781 -0.0876,-0.73294 0.19423,-0.46302 0.49246,0.47157 0.77774,0.40865 0.59976,-0.1323 -0.74827,-2.2742 -1.87451,-4.82691 -2.12994,-4.82769 -0.80111,-0.002 -0.51268,4.08856 0.84869,12.03759 0.12217,0.71336 0.102,0.74234 -0.19912,0.28616 -0.18428,-0.27918 -1.08879,-1.45496 -2.01001,-2.61285 l -1.67496,-2.10525 0.81506,0.11962 c 0.47955,0.0704 0.81541,0.002 0.8159,-0.16527 5.2e-4,-0.1567 -0.86275,-1.07716 -1.91823,-2.04547 -2.0689,-1.89802 -2.30504,-1.90396 -2.31189,-0.0582 -0.003,0.91573 0.28374,1.51409 1.78189,3.71324 0.98226,1.44188 2.57211,3.62955 3.53298,4.86149 1.46294,1.87563 1.77353,2.45502 1.90991,3.5628 0.0896,0.7276 0.41338,2.87073 0.71957,4.7625 0.30619,1.89177 0.62257,4.77904 0.70307,6.41615 0.10793,2.19487 0.23692,2.97656 0.49119,2.97656 0.20521,0 0.46787,-0.59273 0.64873,-1.46393 z m -26.46551,-3.02345 c 0.67809,-1.32916 0.67937,-1.67967 0.005,-1.46575 -0.45477,0.14434 -0.52917,0.0476 -0.52917,-0.68838 0,-0.47098 0.35821,-1.49104 0.79601,-2.26679 0.43781,-0.77575 0.68979,-1.41045 0.55995,-1.41045 -0.39746,0 -2.17862,2.12124 -2.5723,3.06343 -1.12021,2.68106 0.48325,5.23162 1.74013,2.76794 z m -21.44797,-1.96377 c 0.34331,-2.12823 0.89352,-3.21021 1.3104,-2.57693 0.33448,0.5081 0.82836,0.1292 0.82836,-0.63552 0,-0.66023 -0.86051,-1.33781 -1.33027,-1.04748 -0.46499,0.28737 -0.99523,1.55965 -1.18926,2.85353 l -0.18948,1.2636 -0.61778,-1.33339 c -0.68571,-1.48004 -1.80838,-2.2717 -2.24436,-1.58262 -0.45926,0.72587 -0.24555,1.24029 0.80373,1.93468 0.64047,0.42384 1.12155,0.98214 1.22723,1.42422 0.22816,0.9545 0.59472,1.65314 0.86736,1.65314 0.12044,0 0.36076,-0.87896 0.53407,-1.95323 z m 58.42886,-1.21515 c 0.7556,-1.11519 0.78156,-1.68889 0.0661,-1.46183 -0.45477,0.14434 -0.52917,0.0476 -0.52917,-0.68838 0,-0.47098 0.35821,-1.49104 0.79601,-2.26679 0.91459,-1.62056 0.68938,-1.83441 -0.50239,-0.47706 -1.76517,2.01042 -2.39576,4.40939 -1.43741,5.46836 0.56468,0.62396 0.86851,0.51537 1.60681,-0.5743 z m 9.29045,-0.7737 c 0.42847,-1.28157 0.3717,-3.08773 -0.12808,-4.0747 -0.50186,-0.99106 -1.14756,-1.7728 -1.46431,-1.7728 -0.44504,0 -0.21857,1.90728 0.30559,2.57363 0.42325,0.53808 0.52916,1.07336 0.52916,2.67434 0,2.05145 0.21526,2.22179 0.75764,0.59953 z m -23.36601,0.11412 c 0.49655,-1.18841 0.48577,-1.26728 -0.14579,-1.06683 -0.76979,0.24432 -0.70116,-0.81468 0.13229,-2.04121 0.85757,-1.26204 0.84859,-1.79871 -0.0165,-0.98599 -2.06073,1.93595 -2.59074,5.01157 -0.86364,5.01157 0.33218,0 0.64408,-0.32023 0.89365,-0.91754 z m -50.31978,-1.90514 c 1.83998,-1.31475 3.30696,-2.71457 3.77051,-3.5979 0.31521,-0.60066 0.47276,-0.68463 0.87779,-0.46787 0.65189,0.34888 0.9176,-0.27991 0.40447,-0.95718 -0.20366,-0.26881 -0.37407,-0.88352 -0.3787,-1.36603 -0.01,-1.00201 -0.41475,-1.90084 -0.85679,-1.90084 -1.22775,0 -1.76372,2.55672 -0.71413,3.40663 0.55214,0.44709 0.54949,0.45354 -0.72761,1.76941 -0.70497,0.72638 -1.90684,1.88776 -2.67082,2.58085 -0.76399,0.69308 -1.38907,1.31491 -1.38907,1.38184 0,0.27227 0.39115,0.0751 1.68435,-0.84891 z m 3.22174,-6.41945 c -0.18073,-0.29242 0.23665,-0.60818 0.48097,-0.36387 0.25156,0.25157 0.20468,0.61017 -0.0798,0.61017 -0.13694,0 -0.31747,-0.11084 -0.40119,-0.2463 z m 35.97998,5.7897 c 0.1169,-0.18914 0.27495,-0.19154 0.49667,-0.008 0.46445,0.38546 1.48218,-0.38913 1.47039,-1.1191 -0.0128,-0.78946 -0.65944,-1.92255 -0.88706,-1.55426 -0.098,0.15849 -0.0976,0.60905 8e-4,1.00125 0.11457,0.45651 0.0822,0.65327 -0.09,0.54684 -0.14794,-0.0914 -0.34092,-0.52592 -0.42884,-0.9655 -0.23249,-1.16244 -0.65887,-0.97833 -0.75318,0.32522 -0.0447,0.61846 -0.2,1.12448 -0.34501,1.12448 -0.14501,0 -0.22518,-0.44649 -0.17817,-0.99219 0.0857,-0.99481 -0.28708,-1.35839 -0.58821,-0.57367 -0.42707,1.11293 -0.0697,2.4919 0.64585,2.4919 0.26688,0 0.5624,-0.12484 0.6567,-0.27743 z m -39.0417,-1.96753 c 0.75569,-0.39079 1.8598,-1.69791 1.8598,-2.20177 0,-0.31724 -1.4234,-0.84493 -2.27913,-0.84493 -0.61232,0 -1.16045,0.67122 -1.16045,1.42105 0,0.25475 0.3088,0.42784 0.85989,0.48196 l 0.8599,0.0845 -1.12448,0.59914 c -0.61846,0.32953 -1.12448,0.65625 -1.12448,0.72606 0,0.27916 1.39499,0.10323 2.10895,-0.26597 z m 42.34078,-2.12046 c 0.69369,-0.50922 1.70023,-1.41174 2.23674,-2.0056 0.58501,-0.64753 1.12696,-1.02162 1.35388,-0.93454 0.44216,0.16967 0.54733,-1.02547 0.11382,-1.29339 -0.14552,-0.0899 -0.26459,-0.44442 -0.26459,-0.78773 0,-1.90054 -1.24957,-1.97371 -1.71967,-0.1007 -0.13142,0.52365 -0.0308,0.83016 0.40604,1.23716 l 0.58075,0.54105 -2.20771,2.1348 c -2.36229,2.28427 -2.53549,2.70368 -0.49926,1.20895 z m 2.53576,-4.85948 c -0.11397,-0.18442 -0.13577,-0.40675 -0.0484,-0.49409 0.23679,-0.23679 0.49497,0.11147 0.36708,0.49516 -0.0896,0.26886 -0.15194,0.26865 -0.31864,-0.001 z m 12.01949,4.39626 c 0.67046,-1.09962 0.66956,-1.50929 -0.003,-1.33344 -0.75843,0.19834 -0.69884,-0.83407 0.12539,-2.17229 0.87869,-1.42663 0.8333,-1.71223 -0.12606,-0.7931 -1.57727,1.51111 -2.2953,3.88329 -1.43564,4.74295 0.5995,0.5995 0.85004,0.52219 1.43921,-0.44412 z m 13.20707,-0.631 c 0.63569,-0.80815 0.75553,-2.01158 0.17825,-1.79006 -0.91415,0.3508 -0.66057,-1.58758 0.40684,-3.10989 0.82066,-1.17039 0.55262,-1.44313 -0.46591,-0.47408 -1.23007,1.17032 -1.93891,2.71177 -1.94625,4.23232 -0.009,1.86635 0.83983,2.39678 1.82707,1.14171 z m 14.29543,-1.36294 c 0.38561,-1.38845 0.341,-3.10358 -0.10666,-4.09998 -0.39046,-0.86909 -1.29693,-2.04202 -1.57813,-2.04202 -0.362,0 -0.13594,2.20531 0.2554,2.49146 0.5813,0.42506 0.92825,2.1749 0.73362,3.70006 -0.1962,1.53744 0.26412,1.50468 0.69577,-0.0495 z m -50.65644,-0.54243 c 0.44803,-0.25347 1.06644,-0.99695 1.41981,-1.70695 l 0.62606,-1.25788 0.66071,1.01897 c 0.87616,1.35125 1.48142,1.69013 2.99766,1.67838 1.53411,-0.0119 2.09519,-0.33497 2.99701,-1.72579 0.99018,-1.52708 0.93523,-3.31265 -0.19777,-6.42671 -0.58699,-1.61337 -0.76264,-2.37782 -0.52543,-2.28679 0.21435,0.0823 0.35633,-0.0462 0.35633,-0.32239 0,-0.56802 -1.5396,-3.30166 -1.85952,-3.30166 -0.46981,0 -0.54573,1.77085 -0.15604,3.6398 0.22002,1.05521 0.81521,2.9526 1.32266,4.21641 1.06223,2.64551 0.9876,3.06748 -0.62819,3.55158 -2.67809,0.80238 -3.77831,-0.61118 -4.38773,-5.63733 -0.59834,-4.93476 -1.18563,-6.14403 -1.84411,-3.79712 -0.22046,0.78577 -0.17436,1.61768 0.21144,3.81525 0.27615,1.57304 0.41911,3.2098 0.32469,3.71759 -0.23503,1.26403 -1.68549,2.66465 -2.75947,2.66465 -2.25479,0 -3.14336,-1.64457 -2.67854,-4.95747 0.63639,-4.53579 0.63577,-4.61644 -0.035,-4.52132 -0.81696,0.11585 -2.06683,2.67375 -2.80502,5.74059 -0.81682,3.39348 -1.00013,3.79057 -1.70366,3.69041 -0.96667,-0.13763 -1.49501,-1.59783 -1.50964,-4.17231 -0.01,-1.77135 -0.0804,-2.16801 -0.33873,-1.90971 -0.5214,0.5214 -0.57676,3.96722 -0.0946,5.88696 0.39623,1.57759 1.30766,2.88869 2.00811,2.88869 0.12929,0 0.53676,-0.26789 0.90549,-0.59531 0.56583,-0.50245 0.75589,-1.08852 1.21828,-3.75672 0.30133,-1.73877 0.77497,-3.64377 1.05253,-4.23333 0.32982,-0.70056 0.46357,-0.84277 0.38606,-0.41048 -0.93728,5.22745 -0.45404,7.58359 1.78537,8.70492 1.21777,0.60977 1.90135,0.56878 3.25123,-0.19493 z m 28.95267,0.0533 c 0.63001,-0.80093 0.78882,-2.21304 0.1933,-1.7188 -0.19529,0.16208 -0.43341,0.21634 -0.52917,0.12059 -0.36076,-0.36076 -0.13884,-1.32309 0.62445,-2.70786 0.43393,-0.78723 0.78896,-1.55365 0.78896,-1.70315 0,-0.45498 -1.59242,1.21068 -2.29242,2.39786 -1.47538,2.50221 -0.40813,5.6747 1.21488,3.61136 z m -8.30852,-4.07612 c 0.0936,-0.15144 0.404,-0.20114 0.68977,-0.11043 1.06276,0.3373 1.64408,-1.12338 1.05042,-2.63937 -0.30004,-0.76619 -0.63326,-0.0446 -0.4225,0.91493 0.10848,0.4939 0.0665,0.7873 -0.11269,0.7873 -0.15708,0 -0.28561,-0.2749 -0.28561,-0.61089 0,-0.72683 -0.75534,-1.88122 -0.81214,-1.2412 -0.0194,0.21829 -0.014,0.78383 0.0119,1.25678 0.0343,0.62644 -0.0662,0.85989 -0.37007,0.85989 -0.31028,0 -0.41715,-0.27112 -0.41715,-1.05833 0,-0.58209 -0.11906,-1.05834 -0.26458,-1.05834 -0.39567,0 -0.33307,2.83869 0.0662,2.99978 0.52556,0.21207 0.68499,0.19365 0.86654,-0.10012 z m -46.49264,-3.09809 c 0.57103,-1.90333 0.59551,-2.12912 0.34958,-3.2237 -0.2445,-1.08816 -1.30212,-2.92255 -1.68703,-2.92606 -0.38551,-0.004 -0.19221,1.8784 0.26459,2.57592 0.33741,0.51522 0.46007,1.23047 0.45215,2.63652 -0.006,1.06123 0.0643,1.9295 0.15609,1.9295 0.0918,0 0.3009,-0.44648 0.46462,-0.99218 z m 25.12492,-1.01256 c 0.18411,-0.7164 0.26276,-1.7788 0.17477,-2.36088 -0.16689,-1.10403 -1.25255,-3.04271 -1.70391,-3.04271 -0.44743,0 -0.29001,1.91049 0.20219,2.45385 0.35314,0.38984 0.46302,0.97541 0.46302,2.46755 0,2.24499 0.35934,2.44555 0.86393,0.48219 z m -32.18091,-1.32124 c 0.66091,-0.34177 1.81594,-1.67505 1.81594,-2.09619 0,-0.0996 -0.36088,0.12255 -0.80197,0.4937 -1.01856,0.85706 -3.44655,1.58473 -3.423,1.02587 0.0216,-0.51301 1.3344,-1.62185 2.01183,-1.69929 0.59625,-0.0682 0.77527,-0.23652 0.83923,-0.78922 0.0624,-0.53918 -0.12801,-0.86224 -0.81872,-1.38907 -0.96401,-0.73529 -1.76429,-0.8939 -1.79498,-0.35575 -0.0104,0.1819 -0.0724,0.76866 -0.13776,1.30392 -0.0654,0.53526 0.006,1.0502 0.15798,1.14432 0.17094,0.10564 0.0212,0.475 -0.39141,0.96533 -0.74723,0.88804 -0.82288,1.28576 -0.33755,1.77477 0.37941,0.38229 1.76018,0.2009 2.88041,-0.37839 z m 22.96837,-0.0212 c 0.50149,-0.20535 1.33227,-0.69711 1.84618,-1.09278 0.51391,-0.39568 1.23469,-0.77952 1.60174,-0.85297 0.88836,-0.17777 1.01598,-1.23987 0.26387,-2.19602 -0.65559,-0.83344 -1.3163,-0.93363 -1.3163,-0.19959 0,0.28246 -0.11906,0.58714 -0.26459,0.67708 -0.37974,0.23469 -0.32695,1.18951 0.0661,1.19651 0.46973,0.008 -0.71297,0.90569 -2.64583,2.00746 -0.9095,0.51844 -1.65365,0.99992 -1.65365,1.06996 0,0.15101 0.83888,-0.0922 2.10243,-0.60965 z m 14.15409,0.19701 c 0.0815,-0.13186 0.38078,-0.17892 0.66508,-0.10457 0.38673,0.10113 0.55876,-0.0316 0.68312,-0.52709 0.22088,-0.88004 0.0569,-1.94012 -0.27451,-1.77443 -0.14552,0.0728 -0.22861,0.41105 -0.18464,0.75175 0.0492,0.38125 -0.0271,0.5533 -0.19844,0.4474 -0.15311,-0.0946 -0.27838,-0.46267 -0.27838,-0.81789 0,-0.35521 -0.11906,-0.64584 -0.26458,-0.64584 -0.14552,0 -0.26459,0.41672 -0.26459,0.92604 0,0.50933 -0.11906,0.92604 -0.26458,0.92604 -0.14552,0 -0.26458,-0.3671 -0.26458,-0.81579 0,-0.53503 -0.11383,-0.77787 -0.33073,-0.7056 -0.38915,0.12968 -0.48163,1.45277 -0.14794,2.11671 0.24834,0.49413 0.87989,0.6195 1.12477,0.22327 z m 8.09242,-2.06722 c 0.90849,-0.63171 1.56099,-1.44831 1.57142,-1.96663 0.009,-0.43863 -1.2048,-1.01807 -2.13234,-1.01807 -0.54368,0 -1.29844,0.95316 -1.29844,1.63976 0,0.37409 0.15337,0.43301 0.79375,0.30493 1.11246,-0.22249 1.01467,0.32243 -0.13229,0.73717 -0.50932,0.18417 -0.92604,0.43001 -0.92604,0.54629 0,0.38595 1.45935,0.21867 2.12394,-0.24345 z m 9.29313,-0.61112 c 1.10578,-1.05191 1.1138,-1.07256 0.60645,-1.56165 -0.28278,-0.2726 -0.88993,-0.57381 -1.34922,-0.66936 -0.66607,-0.13856 -0.94885,-0.0516 -1.39718,0.42962 -0.75969,0.81543 -0.61043,1.43652 0.31893,1.3271 0.96575,-0.11369 0.91966,0.33618 -0.0767,0.74889 -1.15926,0.48019 -1.21958,0.7914 -0.15337,0.7914 0.72491,0 1.17813,-0.23555 2.05112,-1.066 z m 7.39948,0.0388 c 0.56496,-0.56496 1.0272,-1.13164 1.0272,-1.25927 0,-0.33294 -0.8102,-0.79198 -1.76981,-1.00275 -0.6625,-0.14551 -0.93787,-0.0618 -1.38849,0.42184 -0.7538,0.8091 -0.60247,1.4342 0.32343,1.33602 0.96023,-0.10183 0.91303,0.32813 -0.0812,0.73997 -1.17311,0.48591 -1.21599,0.79139 -0.11111,0.79139 0.77723,0 1.17929,-0.20649 2,-1.0272 z m 20.09374,-0.0477 c 1.16759,-1.16759 1.2081,-1.52958 0.22715,-2.03008 -1.00346,-0.51199 -2.01393,-0.40864 -2.47765,0.25341 -0.63697,0.90941 -0.4997,1.22359 0.58031,1.32821 l 0.99219,0.0961 -1.12179,0.51517 c -1.36601,0.62733 -1.42879,0.91204 -0.20112,0.91204 0.72997,0 1.15361,-0.22757 2.00091,-1.07486 z"
           style="fill:#006a33;stroke-width:0.26458332" />
      </g>
    </g>
  </g>
</svg>
