<?xml version="1.0" encoding="UTF-8" standalone="no"?>
<svg
  xmlns:dc="http://purl.org/dc/elements/1.1/"
  xmlns:cc="http://creativecommons.org/ns#"
  xmlns:rdf="http://www.w3.org/1999/02/22-rdf-syntax-ns#"
  xmlns:svg="http://www.w3.org/2000/svg"
  xmlns="http://www.w3.org/2000/svg"
  xmlns:sodipodi="http://sodipodi.sourceforge.net/DTD/sodipodi-0.dtd"
  xmlns:inkscape="http://www.inkscape.org/namespaces/inkscape"
  id="svg2"
  version="1.1"
  inkscape:version="0.91 r13725"
  xml:space="preserve"
  width="203.94855"
  height="121.67356"
  viewBox="0 0 203.94855 121.67356"
  sodipodi:docname="Cirrus_logo (1).svg"><metadata
     id="metadata8"><rdf:RDF><cc:Work
         rdf:about=""><dc:format>image/svg+xml</dc:format><dc:type
  rdf:resource="http://purl.org/dc/dcmitype/StillImage" /><dc:title></dc:title></cc:Work></rdf:RDF></metadata>
  <defs
    id="defs6" />
  <sodipodi:namedview
    pagecolor="#ffffff"
    bordercolor="#666666"
    borderopacity="1"
    objecttolerance="10"
    gridtolerance="10"
    guidetolerance="10"
    inkscape:pageopacity="0"
    inkscape:pageshadow="2"
    inkscape:window-width="1366"
    inkscape:window-height="705"
    id="namedview4"
    showgrid="false"
    inkscape:zoom="4"
    inkscape:cx="79.657523"
    inkscape:cy="57.038018"
    inkscape:window-x="-8"
    inkscape:window-y="-8"
    inkscape:window-maximized="1"
    inkscape:current-layer="g10" />
  <g
    id="g10"
    inkscape:groupmode="layer"
    inkscape:label="Cirrus_logo (1)"
    transform="matrix(1.25,0,0,-1.25,-3.6502125,122.07862)"><g
       id="g12"
       transform="matrix(0.99877162,0,0,1.000925,0.44478518,-3.4593861e-4)"><g
         id="g14"
         transform="matrix(1,0,0,-0.997501,0,97.662926)"><path
           d="M 84.184,84.939 C 74.352,76.03 68.168,63.158 68.168,48.837 c 0,-14.317 6.184,-27.193 16.016,-36.11"
           style="fill:#009ddd;fill-opacity:1;fill-rule:nonzero;stroke:#009ddd;stroke-width:0.05768089;stroke-linecap:butt;stroke-linejoin:miter;stroke-miterlimit:4;stroke-dasharray:none;stroke-opacity:1"
           id="path16"
           inkscape:connector-curvature="0" /></g><path
    d="m 159.121,21.878 c 0,0.867 0.707,1.57 1.574,1.57 0.871,0 1.575,-0.703 1.575,-1.57 0,-0.867 -0.704,-1.567 -1.575,-1.567 -0.867,0 -1.574,0.7 -1.574,1.567 z m 1.574,-1.196 c 0.664,0 1.2,0.54 1.2,1.196 0,0.66 -0.536,1.191 -1.2,1.191 -0.66,0 -1.195,-0.531 -1.195,-1.191 0,-0.656 0.535,-1.196 1.195,-1.196 z m -0.211,0.508 -0.324,0 0,1.379 0.586,0 c 0.121,0 0.246,0 0.352,-0.07 0.113,-0.074 0.175,-0.207 0.175,-0.344 0,-0.156 -0.089,-0.305 -0.238,-0.359 l 0.254,-0.606 -0.355,0 -0.211,0.543 -0.239,0 0,-0.543 z m 0,0.782 0.18,0 c 0.063,0 0.137,-0.008 0.195,0.027 0.055,0.031 0.082,0.098 0.082,0.156 0,0.055 -0.035,0.113 -0.078,0.141 -0.058,0.035 -0.148,0.027 -0.207,0.027 l -0.172,0 0,-0.351 z"
    style="fill:#009ddd;fill-opacity:1;fill-rule:nonzero;stroke:none"
    id="path18"
    inkscape:connector-curvature="0" /><path
    d="m 84.195,12.948 c 8.649,-7.812 20.114,-12.574 32.7,-12.574 26.902,0 48.71,21.754 48.71,48.59 0,26.836 -21.808,48.593 -48.71,48.593 -12.586,0 -24.051,-4.761 -32.7,-12.574 C 74.363,76.089 68.18,63.245 68.18,48.964 c 0,-14.282 6.183,-27.125 16.015,-36.016"
    style="fill:#009ddd;fill-opacity:1;fill-rule:nonzero;stroke:none"
    id="path20"
    inkscape:connector-curvature="0" /><path
    d="m 99.949,54.112 c -0.187,1.738 -0.461,3.461 -0.828,5.141 l -29.832,0 c 0.379,1.75 0.852,3.472 1.41,5.144 l 27.008,0 c -0.594,1.766 -1.281,3.481 -2.062,5.149 l -22.868,0 c 0.836,1.777 1.774,3.488 2.809,5.144 l 17.246,0 c -1.121,1.797 -2.363,3.516 -3.711,5.145 l -9.828,0 c 1.512,1.828 3.148,3.554 4.91,5.148 C 75.559,92.792 64.086,97.557 51.504,97.557 24.602,97.557 2.789,75.8 2.789,48.96 2.789,22.128 24.598,0.374 51.504,0.374 c 12.582,0 24.055,4.762 32.699,12.574 1.762,1.594 3.406,3.316 4.914,5.145 l -9.824,0 c -1.348,1.629 -2.578,3.351 -3.707,5.144 l 17.246,0 c 1.039,1.656 1.977,3.371 2.813,5.145 l -22.868,0 c -0.785,1.668 -1.484,3.382 -2.078,5.148 l 27.008,0 c 0.563,1.676 1.035,3.395 1.418,5.145 0.363,1.683 0.637,3.402 0.824,5.144 0.176,1.692 0.266,3.406 0.266,5.145 0,1.738 -0.09,3.453 -0.266,5.148 z"
    style="fill:#007cc2;fill-opacity:1;fill-rule:nonzero;stroke:none"
    id="path22"
    inkscape:connector-curvature="0" /><path
    d="m 142.77,37.565 c 0,0.867 0.703,1.571 1.57,1.571 0.871,0 1.574,-0.704 1.574,-1.571 0,-0.867 -0.703,-1.57 -1.574,-1.57 -0.867,0 -1.57,0.703 -1.57,1.57 z m 1.57,-1.195 c 0.66,0 1.199,0.535 1.199,1.195 0,0.657 -0.535,1.192 -1.199,1.192 -0.656,0 -1.192,-0.535 -1.192,-1.192 0,-0.66 0.536,-1.195 1.192,-1.195 z m -0.215,0.508 -0.32,0 0,1.375 0.582,0 c 0.121,0 0.25,0 0.355,-0.071 0.113,-0.074 0.176,-0.203 0.176,-0.339 0,-0.157 -0.09,-0.305 -0.238,-0.36 l 0.254,-0.605 -0.36,0 -0.211,0.543 -0.238,0 0,-0.543 z m 0,0.781 0.18,0 c 0.066,0 0.14,-0.008 0.199,0.027 0.051,0.032 0.078,0.098 0.078,0.157 0,0.054 -0.031,0.113 -0.078,0.14 -0.055,0.035 -0.145,0.028 -0.203,0.028 l -0.172,0 0,-0.352 -0.004,0 z"
    style="fill:#ffffff;fill-opacity:1;fill-rule:nonzero;stroke:none"
    id="path24"
    inkscape:connector-curvature="0" /><path
    d="m 51.484,55.694 7.657,0 -4.477,-20.769 -7.656,0 4.476,20.769 z"
    style="fill:#003473;fill-opacity:1;fill-rule:nonzero;stroke:none"
    id="path26"
    inkscape:connector-curvature="0" /><path
    d="m 48.516,60.151 c -0.434,-1.906 -0.661,-2.984 -1.254,-5.308 -3.66,1.55 -8.574,2.359 -12.344,0.011 -3.555,-2.257 -4.758,-5.781 -4.496,-9.679 0.262,-1.879 1.676,-3.715 3.664,-4.508 3.445,-1.27 6.742,-0.805 10.406,1.062 -0.523,-2.351 -0.914,-4.191 -1.371,-5.875 -4.394,-1.222 -8.566,-1.625 -12.957,-0.168 -3.922,1.36 -7.133,4.852 -7.394,8.661 -0.891,6.105 2.058,12.382 8.019,15.253 5.543,2.493 11.867,2.059 17.727,0.551 z"
    style="fill:#003473;fill-opacity:1;fill-rule:nonzero;stroke:none"
    id="path28"
    inkscape:connector-curvature="0" /><path
    d="m 123.449,48.843 c 0,-2.672 1.77,-4.508 5.781,-5.891 3.083,-1.059 3.559,-1.371 3.559,-2.328 0,-1.317 -1.359,-1.906 -4.363,-1.906 -2.27,0 -4.379,0.257 -6.813,0.832 l -1.039,-4.868 0.336,-0.046 1.391,-0.219 c 0.449,-0.067 1.109,-0.125 1.988,-0.184 1.805,-0.121 3.203,-0.176 4.188,-0.176 8.019,0 11.722,2.227 11.722,7.047 0,2.895 -1.551,4.602 -5.355,5.875 -3.184,1.071 -3.555,1.309 -3.555,2.293 0,1.137 1.262,1.727 3.719,1.727 1.492,0 3.527,-0.121 5.457,-0.32 l 1.082,4.886 c -1.965,0.231 -4.949,0.418 -6.684,0.418 -8.5,-0.004 -11.441,-3.25 -11.414,-7.14 z"
    style="fill:#003473;fill-opacity:1;fill-rule:nonzero;stroke:none"
    id="path30"
    inkscape:connector-curvature="0" /><path
    d="m 117.938,40.249 c -0.379,-1.781 -0.715,-3.527 -0.926,-5.395 l -7.242,0 0.535,3.121 0.183,0.25 c -2.187,-2.3 -4.461,-3.843 -8.457,-3.843 -4.418,0 -6.816,3.093 -6.816,7.14 0,1.387 0.125,2.18 0.59,4.364 l 2.019,9.648 7.43,0 -2.102,-9.687 c -0.211,-1.032 -0.504,-2.063 -0.504,-3.133 0,-1.231 1.231,-2.457 3.34,-2.383 3.196,0 4.762,2.621 5.309,5.676 l 2.191,9.527 7.856,0 -3.406,-15.285 z"
    style="fill:#003473;fill-opacity:1;fill-rule:nonzero;stroke:none"
    id="path32"
    inkscape:connector-curvature="0" /><path
    d="m 95.793,55.768 -2.43,-5.742 -1.23,0.223 c -2.043,0.293 -3.91,-1.215 -4.844,-2.774 -1.781,-3.914 -2.355,-8.328 -3.301,-12.55 l -7.914,-0.004 0.364,1.437 c 1.39,6.43 3.171,12.918 4.175,19.344 l 6.957,0 c 0.164,-1.078 -0.336,-2.105 -0.445,-3.188 1.504,1.34 2.992,4.024 8.59,3.297 l 0.078,-0.043 z"
    style="fill:#003473;fill-opacity:1;fill-rule:nonzero;stroke:none"
    id="path34"
    inkscape:connector-curvature="0" /><path
    d="m 97.465,57.397 c -5.485,0.719 -7.043,-1.972 -8.516,-3.304 0.106,1.082 0.598,2.109 0.434,3.187 l -6.82,0 C 81.578,50.854 79.836,44.366 78.473,37.936 l -0.36,-1.398 7.762,0.004 c 0.93,4.215 1.492,8.597 3.234,12.504 0.918,1.566 2.75,3.074 4.754,2.781 l 1.231,-0.238 2.371,5.808 z"
    style="fill:#ffffff;fill-opacity:1;fill-rule:nonzero;stroke:none"
    id="path36"
    inkscape:connector-curvature="0" /><path
    d="m 53.367,57.296 7.453,0 -4.433,-20.77 -7.453,0 4.433,20.77 z"
    style="fill:#ffffff;fill-opacity:1;fill-rule:nonzero;stroke:none"
    id="path38"
    inkscape:connector-curvature="0" /><path
    d="m 50.207,61.839 c -0.434,-1.914 -0.66,-2.992 -1.254,-5.309 -3.66,1.547 -8.57,2.356 -12.34,0.012 -3.554,-2.258 -4.758,-5.781 -4.5,-9.684 0.266,-1.879 1.676,-3.711 3.664,-4.511 3.45,-1.266 6.743,-0.801 10.407,1.07 C 45.66,41.065 45.27,39.218 44.813,37.538 40.422,36.315 36.25,35.909 31.855,37.37 c -3.921,1.359 -7.113,4.887 -7.375,8.687 -0.89,6.11 2.043,12.36 8.004,15.227 5.543,2.492 11.868,2.059 17.723,0.555 z"
    style="fill:#ffffff;fill-opacity:1;fill-rule:nonzero;stroke:none"
    id="path40"
    inkscape:connector-curvature="0" /><path
    d="m 125.141,50.522 c 0,-2.664 1.769,-4.504 5.785,-5.886 3.078,-1.059 3.554,-1.368 3.554,-2.325 0,-1.316 -1.359,-1.914 -4.363,-1.914 -2.265,0 -4.375,0.262 -6.808,0.84 l -1.043,-4.871 0.336,-0.051 L 124,36.1 c 0.445,-0.066 1.109,-0.128 1.98,-0.183 1.809,-0.117 3.208,-0.176 4.192,-0.176 8.016,0 11.719,2.231 11.719,7.047 0,2.894 -1.551,4.598 -5.352,5.879 -3.187,1.07 -3.559,1.308 -3.559,2.289 0,1.141 1.266,1.723 3.719,1.723 1.496,0 3.528,-0.118 5.461,-0.317 l 1.086,4.891 c -1.973,0.23 -4.953,0.41 -6.691,0.41 -8.496,0 -11.438,-3.242 -11.414,-7.141 z"
    style="fill:#ffffff;fill-opacity:1;fill-rule:nonzero;stroke:none"
    id="path42"
    inkscape:connector-curvature="0" /><path
    d="m 119.629,41.936 c -0.379,-1.789 -0.715,-3.531 -0.926,-5.398 l -7.027,0 0.59,3.375 -0.086,0 c -2.184,-2.301 -4.457,-3.852 -8.457,-3.852 -4.414,0 -6.817,3.094 -6.817,7.145 0,1.387 0.125,2.183 0.59,4.367 l 2.024,9.641 7.429,0 -2.105,-9.68 c -0.211,-1.031 -0.504,-2.066 -0.504,-3.137 0,-1.23 1.234,-2.461 3.34,-2.379 3.195,0 5.093,2.614 5.64,5.672 l 2.145,9.524 7.574,0 -3.41,-15.278 z"
    style="fill:#ffffff;fill-opacity:1;fill-rule:nonzero;stroke:none"
    id="path44"
    inkscape:connector-curvature="0" /><path
    d="m 78.797,55.768 -2.426,-5.738 -1.23,0.223 c -2.047,0.293 -3.914,-1.215 -4.844,-2.778 -1.781,-3.91 -2.359,-8.328 -3.301,-12.546 l -7.918,-0.004 0.367,1.437 c 1.391,6.434 3.172,12.918 4.172,19.348 l 6.957,0 c 0.168,-1.078 -0.336,-2.11 -0.441,-3.192 1.5,1.34 2.992,4.024 8.586,3.297 l 0.078,-0.047 z"
    style="fill:#003473;fill-opacity:1;fill-rule:nonzero;stroke:none"
    id="path46"
    inkscape:connector-curvature="0" /><path
    d="m 78.137,51.589 -1.231,0.242 c -2.008,0.293 -3.836,-1.215 -4.75,-2.781 -1.75,-3.907 -2.308,-8.289 -3.234,-12.504 l -7.762,-0.004 0.356,1.398 c 1.367,6.43 3.109,12.918 4.093,19.344 l 6.821,0 c 0.164,-1.078 -0.332,-2.105 -0.438,-3.187 1.473,1.335 3.031,4.023 8.516,3.304 l -2.371,-5.812 z"
    style="fill:#ffffff;fill-opacity:1;fill-rule:nonzero;stroke:none"
    id="path48"
    inkscape:connector-curvature="0" /></g></g></svg>
